<?xml version="1.0" encoding="UTF-8"?>
<svg width="1028px" height="366px" viewBox="0 0 1028 366" version="1.1" xmlns="http://www.w3.org/2000/svg" xmlns:xlink="http://www.w3.org/1999/xlink">
    <!-- Generator: Sketch 50 (54983) - http://www.bohemiancoding.com/sketch -->
    <title>logo_whimn small</title>
    <desc>Created with Sketch.</desc>
    <defs></defs>
    <g id="logo_whimn-small" stroke="none" stroke-width="1" fill="none" fill-rule="evenodd">
        <g id="Page-1" transform="translate(13.000000, 2.000000)" fill="#4A3648">
            <g id="Logo">
                <path d="M0,127.880372 C4.82557668,131.800788 11.9182505,136.671179 24.6040449,136.671179 C72.3943105,136.671179 128.414352,64.3986929 137.006579,41.8545265 C143.544916,41.8545265 175.124371,59.2518172 175.124371,82.2993283 C175.124371,93.4012669 159.766387,121.439688 146.348583,154.497376 C131.903834,190.089511 121.264823,231.066014 121.264823,249.555067 C141.739766,210.584852 185.806023,142.970076 194.963248,129.489657 C204.116919,116.005693 215.306713,102.496916 216.980385,94.042854 C222.864888,89.4773058 261.888808,91.6501948 261.888808,112.960813 C261.888808,140.361191 222.466903,211.907018 222.466903,260.610924 C222.466903,275.615556 223.607558,289.223584 229.932688,289.223584 C250.976182,289.223584 319.522113,172.997062 319.522113,92.6533394 C319.522113,52.7544183 308.172414,40.3693054 306.591131,38.7919227 C309.153164,38.256676 331.980487,46.8631597 331.980487,101.458325 C331.980487,161.71789 280.533728,307.599206 219.531758,307.599206 C167.118462,307.599206 172.747117,257.083968 172.747117,239.066358 C172.747117,228.726525 185.294327,175.921423 189.625975,165.808451 C167.974842,190.897698 138.690912,276.877462 117.963674,276.877462 C106.709917,276.877462 74.0111275,267.714464 72.5435552,243.5362 C71.5628047,227.39727 71.9074887,183.925312 112.146686,95.4642708 C102.403143,104.237354 70.1734082,148.563581 29.8240538,148.563581 C9.24606077,148.563581 0.973643601,132.00638 0,127.880372 L0,127.880372 Z" id="Fill-1"></path>
                <path d="M502.987483,202.965916 C502.987483,202.965916 462.25791,276.262815 442.159632,277.631061 C426.620422,278.690921 403.729137,263.509055 403.729137,248.103875 C403.729137,223.53924 443.193684,145.797313 443.193684,145.797313 C401.916881,179.407971 365.064115,253.630031 354.9368,279.623172 C351.788449,287.705043 349.592421,296.109479 350.825466,298.962947 C349.574653,300.767189 343.853609,301.607279 340.88293,301.607279 C318.382524,301.607279 309.662373,285.971694 309.662373,271.605105 C309.662373,223.716474 411.635549,42.8101723 411.635549,10.2097478 C411.635549,4.62333174 408.835436,1.42957482 408.835436,1.42957482 C415.93877,-1.83153102 448.779697,9.89781598 448.779697,33.6365397 C448.779697,72.3338142 384.803495,175.994444 372.846157,216.602301 C388.975238,185.320498 427.050389,127.138116 452.045312,127.138116 C469.944009,127.138116 488.251351,139.700463 488.251351,151.48298 C488.251351,172.446219 446.928353,231.755809 446.928353,259.414949 C446.928353,260.549247 447.628382,262.172711 448.861427,261.272362 C464.400636,249.915206 540.014367,133.894276 540.014367,122.781704 C540.014367,122.781704 541.688039,120.739968 551.730071,120.739968 C561.772103,120.739968 583.160282,130.945102 583.160282,146.896164 C583.160282,164.704637 532.203897,230.561252 532.203897,277.677142 C532.203897,286.212732 537.285322,291.731799 540.572258,294.525007 C540.572258,294.525007 535.035992,302.936534 514.930607,298.484415 C498.488823,294.840484 487.387864,284.727511 487.387864,261.353889 C487.387864,237.980268 502.987483,202.965916 502.987483,202.965916" id="Fill-3"></path>
                <path d="M607.836461,62.9116996 C607.569953,66.9490904 598.533545,102.218659 592.993727,101.853557 C586.601081,101.43174 568.976,101.881914 561.769616,97.5680385 C557.377559,94.9343411 557.530357,87.9938571 557.754224,84.5945088 C558.539535,72.6914724 574.853396,42.8098178 574.853396,42.8098178 C592.538886,43.9724729 608.511616,52.7065651 607.836461,62.9116996 Z" id="Fill-6"></path>
                <path d="M945.994255,145.744851 C911.895408,145.744851 877.085873,215.121334 872.722244,216.234363 C875.131479,208.804713 895.76988,163.05707 895.76988,148.187136 C895.76988,128.542518 865.224477,114.282269 853.675785,116.646571 C853.675785,116.646571 856.777942,120.244422 856.777942,124.381063 C856.777942,147.077651 789.07773,267.859087 782.294206,267.781104 C779.988021,267.756291 778.89356,265.565679 779.238244,261.847309 C782.461218,227.042093 812.11826,193.452703 812.11826,175.509532 C812.11826,153.209948 786.945664,152.617986 783.985645,152.617986 C749.339568,145.677503 697.939004,242.039636 697.939004,242.039636 C704.058034,224.280787 731.081974,175.75057 731.081974,159.586828 C731.081974,149.47031 711.005017,134.912309 695.57241,134.912309 C677.403652,134.912309 635.245595,198.337273 635.245595,198.337273 C635.664901,198.475515 659.398352,151.519136 659.398352,124.983659 C659.398352,120.999439 657.038866,114.012874 653.332624,110.312228 C646.648596,103.644684 634.76588,97.6116381 622.929359,97.6116381 C622.929359,97.6116381 624.222812,100.344587 624.222812,103.30085 C624.222812,128.999782 567.150951,233.447331 567.150951,261.510564 C567.150951,271.166273 571.877031,281.169361 590.802673,286.964913 C608.232315,292.306746 610.346614,286.567909 610.346614,286.567909 C610.346614,286.567909 607.951593,284.075999 607.951593,279.223332 C607.951593,262.297483 680.416972,148.180047 695.209959,148.180047 C703.652941,148.180047 647.31309,226.854225 647.31309,274.505362 C647.31309,286.17445 672.62427,296.425665 683.611518,296.425665 C695.156657,296.425665 727.869661,208.740909 770.123661,171.560758 C756.15152,195.597235 739.123417,240.334644 739.123417,263.240368 C739.123417,277.614047 757.530256,286.528918 770.663785,286.528918 C786.387773,286.528918 791.035678,279.939357 819.715523,230.469799 C819.715523,230.469799 808.422678,266.501474 808.422678,280.194574 C808.422678,293.887674 829.9068,306.467744 852.698588,306.467744 C858.430293,306.467744 860.359813,303.41223 860.359813,303.41223 C860.359813,303.41223 858.636393,301.802945 858.99529,296.049929 C860.459309,272.676307 917.513403,157.456475 944.963756,157.456475 C946.957238,157.456475 947.859813,158.39936 947.859813,160.919628 C947.859813,178.579225 896.52321,263.481407 896.52321,315.368436 C896.52321,326.023745 898.189776,340.854687 911.362392,349.794371 C917.769251,354.140149 927.214305,359.467803 939.914313,359.467803 C980.157064,359.467803 1005.13422,299.013281 1002.94885,286.681339 C998.2512,294.968801 965.165084,347.936959 947.678587,347.936959 C943.16216,347.936959 940.454436,342.393079 940.454436,331.723591 C940.454436,275.331273 986.873073,205.079254 986.873073,182.361399 C986.873073,157.137454 955.258083,145.744851 945.994255,145.744851 Z" id="Fill-8"></path>
            </g>
        </g>
    </g>
</svg>